<svg width="20px" height="20px" viewBox="0 0 20 20" version="1.1" xmlns="http://www.w3.org/2000/svg" xmlns:xlink="http://www.w3.org/1999/xlink">
    <g id="Layout" stroke="none" stroke-width="1" fill="none" fill-rule="evenodd">
        <g id="01---Primeira-visão---Área-mínima-de-entrega" transform="translate(-982.000000, -295.000000)" fill="#3F3E3E">
            <g id="funcoes_maps" transform="translate(976.000000, 209.000000)">
                <g id="icon_seu_local" transform="translate(0.000000, 80.000000)">
                    <g id="icon/map/anchor">
                        <path d="M16.99813,8.0616608 C20.6183526,8.51223098 23.487769,11.3816474 23.9383392,15.00187 C23.9587338,15.0006294 23.9792934,15 24,15 L25,15 C25.5522847,15 26,15.4477153 26,16 C26,16.5522847 25.5522847,17 25,17 L24,17 C23.9792934,17 23.9587338,16.9993706 23.9383392,16.99813 C23.487769,20.6183526 20.6183526,23.487769 16.99813,23.9383392 C16.9993706,23.9587338 17,23.9792934 17,24 L17,25 C17,25.5522847 16.5522847,26 16,26 C15.4477153,26 15,25.5522847 15,25 L15,24 C15,23.9792934 15.0006294,23.9587338 15.00187,23.9383392 C11.3816474,23.487769 8.51223098,20.6183526 8.0616608,16.99813 C8.04126625,16.9993706 8.02070662,17 8,17 L7,17 C6.44771525,17 6,16.5522847 6,16 C6,15.4477153 6.44771525,15 7,15 L8,15 C8.02070662,15 8.04126625,15.0006294 8.0616608,15.00187 C8.51223098,11.3816474 11.3816474,8.51223098 15.00187,8.0616608 C15.0006294,8.04126625 15,8.02070662 15,8 L15,7 C15,6.44771525 15.4477153,6 16,6 C16.5522847,6 17,6.44771525 17,7 L17,8 C17,8.02070662 16.9993706,8.04126625 16.99813,8.0616608 Z M16,22 C19.3137085,22 22,19.3137085 22,16 C22,12.6862915 19.3137085,10 16,10 C12.6862915,10 10,12.6862915 10,16 C10,19.3137085 12.6862915,22 16,22 Z M16,20 C13.790861,20 12,18.209139 12,16 C12,13.790861 13.790861,12 16,12 C18.209139,12 20,13.790861 20,16 C20,18.209139 18.209139,20 16,20 Z" id="Combined-Shape"></path>
                    </g>
                </g>
            </g>
        </g>
    </g>
</svg>