<?xml version="1.0" encoding="utf-8"?>
<!-- Generator: Adobe Illustrator 26.0.2, SVG Export Plug-In . SVG Version: 6.00 Build 0)  -->
<svg version="1.1" id="Camada_1" xmlns="http://www.w3.org/2000/svg" xmlns:xlink="http://www.w3.org/1999/xlink" x="0px" y="0px"
	 viewBox="0 0 600 600" style="enable-background:new 0 0 600 600;" xml:space="preserve">
<style type="text/css">
	.st0{fill:#FFFFFF;}
	.st1{fill:#00C555;}
	.st2{fill:#FEFEFE;}
	.st3{fill:#FBFEFD;}
	.st4{fill:#EEFBF5;}
	.st5{fill:#F1FBF6;}
	.st6{fill:#FAFEFC;}
	.st7{fill:#FAFDFC;}
	.st8{fill:#FDFEFD;}
	.st9{fill:#F6FCF9;}
	.st10{fill:#F3FBF7;}
	.st11{fill:#F4FCF8;}
	.st12{fill:#F9FDFB;}
	.st13{fill:#F3FCF8;}
	.st14{fill:#ECFBF4;}
	.st15{fill:#BBF1D9;}
	.st16{fill:#F5FCF9;}
	.st17{fill:#DDF8EC;}
	.st18{fill:#FDFEFE;}
	.st19{fill:#FBFDFC;}
	.st20{fill:#F2FCF8;}
	.st21{fill:#01C657;}
	.st22{fill:#E9FAF2;}
</style>
<circle class="st0" cx="300" cy="307.34" r="273.38"/>
<g>
	<g>
		<g>
			<path class="st1" d="M549,307.3c0.36,137.34-111.85,249.23-249.31,249.05C162.7,556.18,50.89,444.55,51,307.13
				c0.1-137.25,112.04-249.11,249.63-248.8C437.48,58.63,549.3,170.13,549,307.3z"/>
			<path class="st2" d="M403.32,379.7c-0.3,0.32-0.61,0.64-0.91,0.96c-2.72,3.32-5.7,6.38-9.08,9.03c-0.33,0.32-0.66,0.64-0.99,0.96
				c-5.93,3.3-8.31,10.94-4.96,15.92c6.97,6.05,8.56,12.3,5.25,21.35c-3.96,10.84-12.08,17.56-22.36,21.96
				c-21.38,9.14-43.48,9.77-65.88,4.99c-25.27-5.4-48.9-15.31-71.86-26.91c-6.78-3.42-13.63-6.74-19.93-11.04
				c-2.25-2.72-5.54-3.91-8.47-5.57c-4.25-2.41-8.17-5.33-12.46-7.65l0.02,0.02c-0.71-1.79-2.63-2.47-3.66-3.97
				c-0.58-0.85-1.1-1.83-0.37-2.71c0.82-1,1.92-0.38,2.63,0.22c2.92,2.44,6.2,4.34,9.46,6.26c0.84,0.49,1.83,1.31,2.7,0.57
				c1.21-1.04,0.06-2.08-0.48-3.02c-1.6-2.75-4.29-4.56-6.15-7.09c-0.85-1.16-2.32-2.63-1.04-3.9c1.35-1.34,2.69,0.3,3.73,1.23
				c2.83,2.53,5.34,5.4,8.17,7.94c0.89,0.8,2.01,1.11,3.07,1.58c11.55,7.23,23.29,14.13,35.38,20.42
				c22.68,11.81,46.08,21.49,71.76,24.47c16.01,1.86,31.8,1.47,47.03-4.6c1.39-0.55,2.76-1.16,4.06-1.9c0.72-0.4,1.5-0.74,2.28-1.97
				c-9.97,2.32-19.68,3.87-29.54,3.61c-11.2-0.29-22.11-2.41-32.68-6.12c-5.18-1.82-6.95-4.13-6.02-7.13
				c0.99-3.21,4.13-3.91,9.41-2.1c21.88,7.53,43.65,7.43,65.31-0.93c1.55-0.6,3.11-1.22,4.31-2.43c1.84-1.86,1.69-3.83,0.28-5.85
				c-1.31-1.88-2.96-1.8-4.81-0.84c-2.8,1.46-5.44,3.18-8.32,4.5c-16.34,7.49-33.11,5.9-49.83,2.12
				c-15.72-3.55-31.24-7.95-45.83-15.05c-19.53-9.51-37.35-21.63-54.07-35.42c-0.9-0.74-1.67-1.61-2.36-2.55
				c-1.36-2.28-3.5-4-4.72-6.38c-0.49-0.96-1.5-2.15-0.19-3.06c1.17-0.81,2.19,0.16,3.03,0.97c0.95,0.92,1.73,2.02,2.76,2.86
				c0.9,0.73,1.47,2.95,3.06,0.23c0.75-1.29,2.2,0.44,3.29,1.13c2.32,1.47,3.44,4.64,6.7,4.78c3.64,1.29,6.3,3.85,8.72,6.73
				c4.18,4.09,8.69,7.66,13.97,10.33c6.05,3.07,11.49,7.21,17.68,10.13c15.05,7.1,30.29,13.23,46.93,15.88
				c7.12,1.13,14.13,1.75,21.26,1.6c7.89-0.16,15.43-1.98,22.39-5.82c1.57-0.86,3.68-1.58,3.73-3.63c0.05-2.5-2.52-2.17-4.08-2.83
				c-1.51-0.65-3.56-1.04-3.02-3.15c0.43-1.68,2.29-1.65,3.83-1.42c3.36,0.51,7-0.65,10.27,2.42c-0.06-4.25-0.15-8.39,2.62-10.45
				c8.29-6.15,13.2-16.03,23.22-20.32c2.78-1.19,7.21-3.5,2.93-8.19c-0.87-0.96,0.44-1.72,1.39-2.05c1.44-0.5,2.96-0.35,4.45-0.45
				c2.89-0.21,4.98-1.37,5.97-4.36c1.9-5.72,3.05-11.48,2.78-17.59c-0.14-3.05-1.9-3.9-4.14-4.78c-2.4-0.94-4.2-0.14-5.68,1.77
				c-0.93,1.21-1.54,2.57-1.67,4.1c-0.55,6.56-5.11,12.38-3.55,19.35c0.16,0.73-0.19,1.71-1.23,1.85c-0.93,0.13-1.58-0.47-2.08-1.13
				c-1.74-2.3-2.16-5.06-1.29-7.6c1.52-4.42,2.29-8.97,3.41-13.46c1.15-4.6,4.34-8.13,7.9-11.23c1.03-0.23,1.92,0.14,2.84,0.57
				c5.49,2.57,10.22-0.32,10.28-6.55c0.09-8.9,0.37-17.81-0.2-26.71c-0.06-1.01-0.13-1.97,0.4-2.87c0.71-0.7,1.58-1.19,2.38-1.77
				c2.85-2.09,4.26-1.17,4.31,2.17c0.18,13.3,1.26,26.65-1.86,39.81c-1.25,5.28-2.37,10.58-3.55,15.87l0.01,0
				c-2.74,3.82-3.25,8.56-5.35,12.71C412.28,365.91,407.84,372.81,403.32,379.7z"/>
			<path class="st3" d="M390.6,208.96c10.93,7.99,19.9,18.59,22.2,31.34c1.87,10.37,7.07,18.9,9.69,28.59
				c-2.53,0.8-3.1-1.21-3.83-2.79c-2-4.33-3.85-8.73-6.14-12.92c-0.56-1.02-0.92-2.19-0.63-3.35c1.23-4.8-0.25-9.09-2.93-14.07
				c2.53,5.02,4.17,9.29,2.89,14.11c-0.31,1.14,0.16,2.28,0.61,3.36c0.26,0.61,1.04,1.51,0.84,1.7c-3.18,2.95-0.35,6.93-1.82,10.13
				c-2.59,0.38-3.31-1.83-4.41-3.35c-1.95-2.69-3.67-5.53-6.09-7.86c-2.52-2.44-5.45-3.72-8.49-1.57c-2.96,2.09-1.83,4.94-0.26,7.53
				c0.53,0.87,0.89,1.79,0.53,2.83c-1.83,2.1,0.21,3.49,1.22,4.62c3.28,3.67,4.7,8.27,6.91,12.48c1.67,3.17,1.4,6.38,0.42,9.61
				c-0.5,1.65-1.19,2.9-3.5,2.46c-2.66-0.51-3.7,1.07-3.27,3.65c0.22,0.41,0.33,0.84,0.36,1.31c-0.22,1.73-1.9,2.19-2.85,3.29
				c-2.07,2.38-5.6,3.65-5.23,7.87c0.15,1.67-2.17,2.36-3.35,3.46c-2.94,2.74-4.01,6.68-6.84,9.67c-2.18,2.3-4.55,4.14-6.95,6.05
				c-1.15,0.91-2.86,1.43-2.31,3.37c1.36,4.73-1.79,6.81-5.22,8.21c-2.48,1.01-4.67,3.34-7.9,2.27c-1.14-0.38-1.59,0.99-1.83,1.94
				c-0.9,3.44-3.45,6-4.82,9.24c-1.12,2.65-4.56,3.62-7.19,4.63c-4.57,1.75-8.5,4.03-11.93,7.63c-3.78,3.98-9.27,5.72-13.56,9.19
				c-2.3,1.86-4.21,0-5.48-2.35c-2.39-4.45-6.17-7.93-8.8-12.21c-4.93-2.71-7.03-6.97-6.81-12.49c0.2-0.46,0.54-0.8,0.99-1.04
				c5.21,2.52,6.58,2.3,10.31-2.61c2.16-2.85,4.37-4.74,8.17-5.63c6.74-1.57,11.83-6.53,15.24-12.11c2.85-4.66,6.35-7.72,11.13-9.16
				c4.32-1.3,6.48-4.41,8.19-7.87c1.14-2.32,2.44-4.19,4.44-5.74c5.25-4.08,8.08-10.29,12.84-14.81c1.77-1.68,1.47-4.86,2.86-6.14
				c4.57-4.22,5.34-9.94,7.37-15.2c0.6-1.54,1.8-2.75,2.92-4.01c3.64-4.1,7.1-8.23,7.43-14.21c0.16-2.92,2.52-5.66,2.97-8.24
				c0.96-5.51,4.79-9.4,6.35-14.38c1.04-3.32,0.5-6.53-2.51-9.01c-1.79-1.47-3.35-3.22-5.01-4.86c-1.17-1.14-2-2.35-0.24-3.71
				C388.6,207.48,389.44,208.7,390.6,208.96z"/>
			<path class="st4" d="M217.79,214.28c5.4-6.16,11.51-11.45,18.76-15.35c0.25,0.23,0.43,0.49,0.54,0.8c-0.2-0.26-0.4-0.52-0.6-0.77
				c9.82-7.1,20.65-12.22,32.06-16.18c0.4,2.77-1.92,3.24-3.61,3.76c-6.56,1.99-12.37,5.53-16.91,7.75
				c5.88-3.73,14.18-6.32,21.88-10.2c0.74-0.37,1.58-0.52,2.39-0.68c1.81-0.34,3.84-0.89,5.17,0.68c1.62,1.91,0.08,3.8-0.87,5.46
				c-1.32,2.3-2.87,4.46-4.55,6.53c-4.28,1.69-8.77,2.96-12.18,6.37c-0.63,0.63-1.18,1.09-0.92,2.05c-0.42,2.03-2.12,2.9-3.62,3.86
				c-11.7,7.43-21.31,17.2-30.77,27.16c-1.07,1.12-1.72,2.99-3.85,2.45c-0.36-0.23-0.72-1.06-1.07-0.7
				c-4.52,4.57-9.73,7.09-16.33,6.02c-1.29-0.21-1.29,1.29-1.93,1.96c-1.03,1.09-1.61,3.29-3.79,1.54
				c3.88-9.24,8.65-17.98,14.9-25.87C214.42,218.84,216.69,217.03,217.79,214.28z"/>
			<path class="st5" d="M197.57,246.78c3.15-2.31,5.24-5.39,10.54-4.89c4.17,0.39,9.4-2.18,11.81-7.17
				c1.29,1.05,0.54,2.26,0.81,3.27c-0.02,0.24-0.04,0.48-0.06,0.72c-0.27,0.97-0.83,1.82-1.12,2.77c-1.67,5.35,0.3,7.87,5.73,6.97
				c3.73-0.62,7.65-0.77,10.98-3c16.7-4.56,33.67-5.73,50.89-4.41c8.14,0.62,16.15,2.02,24.21,3.18c4.28,0.62,8.63,0.65,12.77-1.13
				c1.37-0.59,2.81-1.12,4.31-0.28c-0.6,4.88-4.62,5.09-8.06,5.46c-7.14,0.77-14.18-0.59-21.24-1.59
				c-9.98-1.42-19.98-2.37-30.13-1.69c-7.23,0.48-14.56-0.58-20.2,1.35c3.4-0.65,8.26-1.62,13.25-1.32c1.25,0.08,3.2-0.29,3.28,1.33
				c0.1,1.92-1.97,1.89-3.35,1.91c-3.82,0.06-7.61,0.24-11.28,1.36c-1.51,0.47-3.03,0.62-4.59,0.12c-2.54-0.82,0.67,0.7-0.22,0.6
				c-1.26,2.58-3.94,1.88-5.98,2.58c-1.81,0.62-3.9,0.3-5.58,1.51c-0.44,0.21-0.9,0.38-1.37,0.5c-3.66,0.66-7.38,1.15-10.33,3.75
				c-7.23,3.85-13.59,8.88-19.53,14.49c-0.47-0.17-0.79-0.5-0.99-0.95c-0.12-0.46-0.14-0.93-0.08-1.41
				c0.68-2.36,2.87-3.39,4.37-5.02c-1.4,1.56-3.5,2.44-4.37,4.52c-1.1,1.54-0.76,3.8-2.5,5.02c-2.87,0.39-5.4-1.12-8.15-1.52
				c-2.5-0.36-2.4-2.27-1.57-4.19c1.21-2.8,2.95-5.44,2.9-8.65c-0.08-0.7-0.9,0.03-0.26-0.15c0.2-0.06,0.31,0.1,0.22,0.44
				c-0.69,2.63-0.2,6-4.12,6.63c0.66-3.6,2.45-6.75,4-9.99c1.82-3.63,4.05-7.07,5.05-11.07L197.57,246.78z"/>
			<path class="st6" d="M208.86,401.57c-4.28-0.9-6.04-4.9-9.01-7.41c-1.48-1.25-2.58-2.95-4.32-4.01
				c1.21,4.52,5.46,6.62,7.69,10.32c1.1,1.82,2.46,3.74,0.89,5.28c-1.22,1.2-3.6,0.16-4.93-0.86c-3.44-2.65-7.78-4.04-10.65-7.64
				c-0.17,2.83,3.53,3.65,3.16,6.46c-5.28-3.38-9.9-7.43-12.93-13.04c-3.5-6.77-6.65-13.59-6.02-21.56c0.2-2.5,0.23-4.91,1.53-7.15
				c2.89-4.97,3.5-10.79,5.87-15.96c0.83-1.31,1.67-2.61,3.45-2.71c3.05,2.6-0.13,4.81-0.86,6.79c-1.1,2.97-3.37,5.95-1.03,8.73
				c2.52,3,5.85,0.26,8.83-0.1c2.01-0.24,3.23-3.19,5.74-1.63c0.98,4.13,0.48,8.4,1.17,12.58c0.56,3.38-3.59,2.69-4.96,4.57
				c-1.04,4.28-0.17,8.07,2.9,11.29c4.18,4.24,7.97,8.84,12.26,12.98C208.48,399.29,209.21,400.25,208.86,401.57z"/>
			<path class="st7" d="M390.6,208.96c-1.08-0.3-2.17-0.59-3.25-0.89c-1.7,1.24-2.8-0.08-3.87-1.02c-1.85-1.6-3.32-0.66-4.87,0.47
				c-1.68,1.21-0.9,2.45-0.33,3.9c2.94,7.48,1.89,9.94-5.66,12.84c-5.7,2.19-11.7,3.59-17.11,6.61c-1.65,0.92-3.73,1.51-5.73,0.44
				c-0.82-2.93,1.79-3.12,3.32-3.83c5.73-2.63,11.61-4.91,17.6-6.9c5.55-1.84,6.16-4.23,2.2-8.57c-2.82-3.09-6.28-5.39-9.98-7.34
				c-2.06-1.09-4-2.37-5.68-4.01c-9.59-5.52-20.07-8.04-30.94-9.24c-1.79-0.2-3.63,0.04-5.43-0.21c-0.49-0.07-0.98-0.18-1.45-0.32
				c-1.36-0.48-2.8-0.7-4.2-1.03c-2.55-0.71-5.09-0.68-7.63,0.06c-1.46,0.35-2.93,0.62-4.36,1.1c-0.52,0.15-1.05,0.25-1.59,0.3
				c-3.06-0.09-6.23,0.79-9.11-0.97c-0.35-0.51-0.47-1.06-0.36-1.67c2.47-3.16,6-1.65,9.09-2.09c5.39-1.31,10.83-1.17,16.29-0.64
				c6.88,1.58,14.18,0.07,20.92,2.82c0.72,0.3,1.78,0.01,1.89-1.04c0.1-1.02-0.86-1.25-1.63-1.48c-1.26-0.38-2.6-0.54-3.78-1.13
				c-1.68-0.84-2.94-1.86-0.82-3.61c7.15,0.31,13.31,3.85,19.83,6.17c1.22,0.43,2.45,0.85,3.66,1.31
				C369.55,194.12,380.86,200.24,390.6,208.96z"/>
			<path class="st8" d="M411.19,265.16c0.09-0.96,0.63-2.36,0.19-2.81c-2.13-2.18-5.71-4.16,0.49-5.61
				c0.68-0.16,0.88-1.11,0.59-2.11c-1.97-6.85-0.67-14.43-4.59-20.92c3.78,4.02,5.73,8.67,5.25,14.21
				c-0.07,0.81-0.91,1.83-0.63,2.34c3.34,6.2,5.05,13.29,10,18.62c9.19,25.79,7.02,51.4-1.16,76.93c0.33-8.75,3.15-17.08,4.41-25.68
				c0.34-2.31,0.74-4.63,0.46-6.87c-0.88-7.05-1.08-14.06,0-21.11c0.23-1.52,0.72-3.74-1.12-4.47c-1.78-0.7-1.33,1.97-2.39,2.45
				c-0.64,0.29-1.6-0.15-2.41-0.26c-2.84-3.88-2.11-9.08-4.79-13.02C413.38,273.21,410.61,269.8,411.19,265.16z"/>
			<path class="st9" d="M202.72,270.92c-0.01,0.33-0.02,0.65-0.04,0.98c-0.29,2.31-0.05,4.69-1.08,6.89
				c-0.15,0.48-0.33,0.94-0.53,1.39c-1.89,5.93-3.16,11.98-4.08,18.12c-0.35,2.37-0.4,4.94-2.49,6.69
				c-0.42,0.46-1.24-1.48-1.38,0.16c-0.19,2.14-0.06,4.29-0.1,6.44c-0.11,6.03-0.77,6.77-6.69,7.49c-4.59,0.56-4.83,0.99-3.29,5.71
				c0.06,0.51-0.1,0.94-0.51,1.26c-1.76-0.87-3.19-2.06-3.85-3.99c-2.38-5.98-1.66-12.04-0.29-18.04c0.47-2.08,0.73-4.2,1.31-6.25
				l-0.03,0.04c1.89-3.78,1.73-8.07,3.04-11.99l-0.02,0.03c0.97-0.39,0.15-2.21,1.7-2.14c2.76,2.44,1.44,5.5,1.21,8.37
				c-0.17,2.13-0.96,4.58,2.16,5.17c2.69,0.51,4.38-0.9,5.35-3.38c1.04-2.66,1.27-5.49,1.82-8.25c0.78-3.94,1.78-7.78,4.8-10.71
				c0.02-1.92-0.33-3.99,2-4.99C202.39,269.94,202.42,270.56,202.72,270.92z"/>
			<path class="st10" d="M301.53,188.1c-2.98,0.45-6.17-1-8.98,1c-0.96,2.15-4.24,0.48-4.97,3.03c-4.89,2.31-9.85,4.37-15.39,4.41
				c-0.2-0.15-0.4-0.3-0.6-0.46c0.15-3.47,3.43-5.17,4.54-8.09c0.4-1.04,1.59-2.11,0.83-3.18c-0.88-1.23-2.49-0.88-3.67-0.43
				c-5.82,2.22-11.6,4.55-17.38,6.89c-3.9,1.58-7.27,4.41-11.71,4.81c5.94-4.17,12.35-7.47,19.18-9.88c2.1-0.74,3.92-1.56,5.16-3.43
				c2.85-1.29,5.68-2.64,8.88-2.81c0.21,0.07,0.42,0.14,0.63,0.21c3.03,0.69,5.79-0.59,8.66-1.16c4.48-0.31,8.88-2.34,13.43-0.53
				C302,181.49,302.17,184.74,301.53,188.1z"/>
			<path class="st11" d="M199.75,274.91c-2.85,6.31-3.71,13.17-5.4,19.79c-1.2,4.7-4.83,4.74-8.22,3.9
				c-3.66-0.9-2.34-4.11-1.88-6.61c0.51-2.74,1.26-5.46-0.37-8.09c0.23-4.72,2.8-8.77,3.78-13.27c0.04-1-0.02-2.04,0.9-2.75
				c2.84-1.87,2.56-5.53,5.04-8.72c0.49,4.61-1.26,7.87-2.77,11.05c-1,2.11-0.48,2.95,1.5,2.63
				C195.22,272.36,197.23,274.4,199.75,274.91z"/>
			<path class="st12" d="M180.79,345.76c-3,11.27-9.96,21.8-6.02,34.38c1.13,3.61,3.64,6.66,3.99,10.54
				c-8.08-10.33-9.44-23.21-2.91-33.98c2.14-3.54,0.82-7.96,3.81-11C180.06,345.36,180.44,345.36,180.79,345.76z"/>
			<path class="st8" d="M403.32,379.7c-0.24-0.89-1.19-1.71-0.28-2.71c7.58-8.26,12.38-18.05,15.89-28.58
				c0.41-1.24,0.6-2.68,2.41-2.61C417.91,358.47,412.19,369.92,403.32,379.7z"/>
			<path class="st9" d="M180.79,345.76c-0.38-0.02-0.75-0.04-1.13-0.07c0.65-2.52,2.39-4.21,4.38-5.69
				c6.15-4.57,6.01-8.79-0.46-12.95c-0.4-0.26-0.7-0.66-1.05-0.99c0,0,0.3-0.34,0.3-0.34c2.75-1.55,5.79-0.92,6.99,1.39
				c1.73,3.35,1.98,7.4-0.02,10.97c-1.38,2.45-3.26,4.58-6.02,5.67C182.78,344.42,181.79,345.09,180.79,345.76z"/>
			<path class="st6" d="M191.68,403.69c6.23,1.37,10.66,6,15.95,9.04c1.73,0.99,5.46,0.35,4.97,4.18
				C205.27,413.08,197.9,409.29,191.68,403.69z"/>
			<path class="st13" d="M290.5,177.02c9.35-1.28,18.7-1.37,28.04,0.06c-0.22,0.21-0.43,0.43-0.64,0.64
				c-8.95,1.66-17.98,0.34-26.97,0.81C290.33,178.16,290.19,177.65,290.5,177.02z"/>
			<path class="st13" d="M357.63,189.01c-7.24-0.65-13.14-5.5-20.29-6.44c-0.97-0.13-1.93-0.3-2.89-0.45
				c-0.71-0.6-2.14-0.25-2.23-1.68c0.12-0.16,0.25-0.32,0.37-0.48C341.37,181.8,349.73,184.76,357.63,189.01z"/>
			<path class="st14" d="M179.71,297.77c0.63,3.2-0.48,6.27-1.24,9.2c-1.34,5.15-0.29,10.08,0.22,15.1
				C174.24,313.76,177.34,305.78,179.71,297.77z"/>
			<path class="st8" d="M387.38,406.57c-0.16-0.03-0.38,0-0.48-0.09c-3.9-3.56,0.75-7.92-0.95-11.95c-0.34-0.82,2.95-4.55,6.39-3.88
				c-4.27,2.81-5.32,7.13-5.91,11.85C386.22,404.17,386.61,405.32,387.38,406.57z"/>
			<path class="st14" d="M187.66,270.63c-0.11,4.75-2.52,8.85-3.78,13.27c-0.13,0.81-0.3,1.59-1.19,1.94
				C183.51,280.5,185.33,275.48,187.66,270.63z"/>
			<path class="st13" d="M318.54,177.08c4.83,0.26,9.51,1.25,14.06,2.87c0,0-0.19,0.25-0.19,0.25c-5.27,1.92-11.57,0.57-13.96-3
				L318.54,177.08z"/>
			<path class="st14" d="M182.72,285.82c-0.47,4.14,0.35,8.6-3.04,11.99C179.9,293.61,181.01,289.64,182.72,285.82z"/>
			<path class="st10" d="M290.5,177.02c0.02,0.37,0.04,0.74,0.05,1.11c-2.59,2.38-6.1,1.3-9.04,2.37c-1.3,0.35-2.61,0.79-3.81-0.27
				c0,0-0.27-0.26-0.27-0.26C281.58,178.06,286.01,177.38,290.5,177.02z"/>
			<path class="st8" d="M393.33,389.69c2.61-3.43,5.59-6.48,9.08-9.03C400.22,384.51,397.27,387.59,393.33,389.69z"/>
			<path class="st4" d="M197.61,246.81c0.06,4.49-2.24,7.9-5.05,11.07C193.73,253.96,195.32,250.22,197.61,246.81z"/>
			<path class="st15" d="M217.79,214.28c-0.17,3.5-2.67,5.12-5.32,6.63C213.48,218.09,215.91,216.41,217.79,214.28z"/>
			<path class="st1" d="M237.78,376.37c-2.6-1.93-5.19-3.86-7.79-5.79c-11.94-8.2-18.75-19.44-19.55-33.98
				c-0.29-5.27,1.42-6.42,6.73-5.56c10.81,1.74,21.49,4.2,32.33,5.78c11.48,2.31,22.91,4.88,34.75,4.64
				c7.14-0.14,7.59,0.28,9.57,7.18c1.59,5.54,5.53,9.64,8.51,14.32c0.31,0.39,0.59,0.81,0.84,1.25c2.06,3.51,4.53,6.7,7.51,9.49
				c9.79,10.25,21.17,18.09,34.6,22.8c4.99,1.75,10.32,2.46,15.1,4.87c1.72,0.86,4.26,0.94,4.52,3.33c0.3,2.68-2.31,3.36-4.06,4.38
				c-8.91,5.14-18.75,6.25-28.73,5.86c-16-0.63-31.35-4.53-46.13-10.56C268.62,397.28,252.37,388.25,237.78,376.37z"/>
			<path class="st8" d="M237.78,376.37c17.03,11.83,34.53,22.77,54.28,29.66c16.6,5.79,33.51,9.3,51.2,7.76
				c6.53-0.57,12.7-2.39,18.29-5.82c1.25-0.77,3.48-1.36,3.05-3.45c-0.34-1.63-2.27-1.69-3.6-2.18c-6.98-2.59-14.45-3.52-21.31-6.65
				c-11.59-5.3-22.04-12.02-30.2-21.96c-1.88-3.37-4.33-6.29-7.13-8.93l0.05,0.07c-0.25-2.38-3.83-4.37-0.86-7.14
				c0.56,0.3,1.58,0.55,1.61,0.9c0.34,3.73,2.5,6.41,5.33,8.35c2.41,1.66,1.12,6.62,4.75,6.1c2.44-0.35,4.33-3.56,6.83-4.55
				c6.34-2.5,9.96-8.37,15.5-11.84c1.33-0.83,2.61-0.63,3.71-0.65c3.04-0.04,3.63-5.22,7.36-3.27c-0.85-4.69,4.63-6.59,4.77-10.83
				c0.1-3.03,1.05-3.44,4.07-2.32c4.79,1.76,11.01-4.32,10.08-9.27c-0.28-1.46-0.15-2.55,1.61-3.61c3.14-1.88,8.17-2.09,7.95-7.68
				c-0.04-0.93,1.26-0.64,2.07-0.43c0.65,0.17,1.37,0.13,1.69-0.6c2.74-6.15,2.73-6.15,6.51-9.43c0.24-0.21,0.67-0.52,0.63-0.7
				c-1.54-6.81,5.31-7.46,8.09-11.08c0.18-0.24,0.16-0.63,0.64-1.22c0.38-0.27,0.24-0.19-0.02-0.02c0.15-0.06,0.28-0.16,0.02,0.03
				c-2.19,0.2-4.4-0.14-1.97-2.19c1.73-1.46,2.79-2.98,2.8-5.09c2.34,0.3,1.51,3.36,3.53,2.79c1.59-0.45,0.93-2.25,1.3-3.45
				c2.04-6.59-2.57-11.31-5.11-16.34c-1.08-2.14-2.34-5.12-5.01-6.53c-0.78-0.41-1.16-1.32-0.5-2.09c0.9-1.06,1.78,0.11,2.68,0.24
				c1.47,0.39,2.34,1.44,2.97,2.75c5.1,7.64,8.94,15.74,10.53,24.94c0.97,5.64,0.65,11.24,0.66,16.85
				c0.01,6.11,0.56,12.23-0.3,18.33c0.01,1.35,0.08,2.86-1.32,3.52c-2.72,1.3-3.78,3.9-4.49,6.32c-1.51,5.17-2.18,10.54-4.04,15.67
				c-0.82,2.26-0.03,4.87,2.88,7.65c-2.83-9.19,2.71-15.96,3.49-23.64c0.33-3.22,2.99-6.28,7.12-5.35c3.74,0.84,6.92,2.09,6.53,7.46
				c-0.36,4.99-0.85,9.83-2.18,14.65c-1.69,6.11-3.34,7.55-9.7,7.64c-1.12,0.02-2.24,0-3.36,0c-0.25,2.8,4.14,1.83,3.2,4.45
				c-1.31,3.62-4.68,6-7.76,7.2c-4.73,1.85-7.54,5.53-10.92,8.68c-1.1,1.03-2.16,1.97-3.47,2.67c-0.91,0.49-2.1,1.36-1.53,2.22
				c2.85,4.3-0.38,3.54-2.84,3.75c-3.02,0.26-6.03,5.88-4.59,9.17c0.76,1.72,0.88,2.78-0.6,3.78c-1.74,1.17-2.18-0.71-3.1-1.47
				c-3.63-3-7.7-0.21-12.53-2.23c2.24,3.38,4.57,2.66,6.3,3.46c1.34,0.62,2.94,0.48,2.98,2.59c0.03,1.76-0.44,2.78-2.06,3.99
				c-6.5,4.84-14.17,6.71-21.73,7.34c-7.96,0.66-16.06,0.9-24.2-1.27c-5.3-1.42-10.97-1.92-16.37-3.47
				c-17.24-4.94-33.39-12.24-48.42-22c-0.55-0.36-1.24-1.24-1.55-1.11c-3.36,1.39-3.87-1.26-5.5-3.14
				c-1.96-2.28-4.99-3.64-7.56-5.39C238.08,378.31,237.7,377.45,237.78,376.37z"/>
			<path class="st1" d="M208.86,401.57c-4.61-5-9.22-10-13.83-15c-2.26-2.11-2.98-5.04-3.61-7.83c-0.59-2.62,0.07-4.99,3.63-4.83
				c1.89,0.45,3.05,1.91,4.34,3.19c12.44,12.34,27.13,21.1,43.45,27.25c1.93,0.73,4.56,2.24,5.59-0.49
				c0.92-2.47-2.03-3.05-3.76-3.66c-12.8-4.56-24.14-11.61-34.81-19.88c-2.9-2.25-5.61-4.65-7.92-7.51
				c-2.41-4.11-5.57-7.89-5.2-13.15c0.15-2.11,0.52-3.97,2.53-5.03c2.26-1.2,3.75,0.33,5.25,1.64c4.25,3.68,8.12,7.76,12.09,11.74
				c27.48,23.68,57.72,42.21,93.51,50.62c9.22,2.17,18.4,4.11,27.86,5.05c13.87,1.38,26.28-2.36,37.95-9.35
				c2.45-1.47,4.42-3.02,6.47,0.54c1.91,3.32,3.28,6.5-0.81,8.98c-6.04,3.66-12.88,5.3-19.7,6.62c-17.82,3.43-35.36,2.32-52.44-4.13
				c-2.44-0.92-5.15-1.83-6.41,1.28c-1.32,3.26,1.5,4.28,3.86,5.16c20.55,7.67,41.41,8.68,62.63,3.09c1.17-0.31,2.88-2.28,3.82-0.13
				c0.91,2.06-1.31,2.78-2.65,3.57c-12.8,7.47-26.93,9.08-41.33,8.75c-26.75-0.62-51.38-9.21-75.17-20.72
				C238.51,419.73,223.37,411.2,208.86,401.57z"/>
			<path class="st12" d="M216.61,368c-4.27-3.62-8.53-7.24-12.81-10.85c-1.2-1.01-2.18-2.89-4.12-1.83
				c-1.58,0.86-1.81,2.62-1.94,4.31c-0.39,5.2,3.15,8.81,5.25,13c-2.79,0.97-3.64-1.13-4.83-2.92c-2.68-4.01-1.33-8.71-2.4-12.99
				c-2.84,3.78-7.39,3.67-11.34,4.84c-2.26,0.67-4.09-1.02-4.72-2.74c-0.93-2.56-0.65-5.73,1.08-7.73c1.95-2.26,1.7-5.04,3-7.34
				c0.99-1.31,1.74-2.99,3.02-3.86c4.71-3.18,2.79-7.87,2.33-11.75c-0.26-2.17-3.95-2.06-6.29-2.43c-0.78-1.86-3.82-2.74-2.67-5.38
				c1.22-2.81,3.91-2.75,6.4-2.49c4.29,0.45,5.55-1.63,5.24-5.56c-0.19-2.45-0.14-4.96,0.18-7.39c0.19-1.44,1.11-2.22,1.78-0.05
				c2.48,2.81,0.27,6.62,2.05,9.57c0.26,0.38,0.49,0.78,0.71,1.18c0.9,2.14,2.63,2.99,4.83,3.12c15.4,6.2,31.9,7.51,47.92,10.97
				c2.31,0.5,5.56-0.33,6.41,3.25c-3.1,2.21-6.4,0.93-9.54,0.34c-7.75-1.46-15.56-2.55-23.29-4.1c-0.5-0.12-0.99-0.29-1.46-0.47
				c-5.47-0.93-10.54-3.25-14.2-4.14c10.32,6.57,24.04,7.23,37.22,9.91c2.09,0.43,4.38,0.37,5.42,2.8
				c-0.11,0.22-0.22,0.43-0.32,0.65c-10.73-1.88-21.48-3.69-32.2-5.67c-5.67-1.05-5.99-0.98-5.57,4.92c1,13.88,8,24.54,18.25,33.39
				c-4.81,0.44-5.64-4.88-9.32-6.29c-2.15,0.79,1.75,2.63-0.29,3.23c-1.52,0.45-2-1.42-3.02-2.06c-2.27-1.42-3.34-3.95-5.76-5.91
				C211.94,363.61,215.64,364.98,216.61,368z"/>
			<path class="st3" d="M406.31,325.8c-1.23-1.96-0.91-4.15-1.01-6.3c-0.52-11.22,1.26-22.52-1.84-33.67
				c-1.71-6.16-3.89-11.95-8-16.83c-1.16-1.37-1-2.69-1.11-4.13c2.75-0.2,3.58,2.09,4.72,3.81c5.18,7.8,7.61,16.55,8.6,25.76
				c0.82,7.61,1.21,15.23,1.1,22.88c-0.08,5.26,1.77,8.12,4.73,8.02c2.89-0.09,5.17-3.44,5.37-7.9c0.52-12.02-0.54-23.91-3.03-35.67
				c-0.41-1.93-1.15-3.88,0.16-5.77c3.35,4.03,3.74,8.98,4.3,13.87c2.11,10.67,0.95,21.45,0.78,32.16
				c-0.09,5.42-7.63,8.09-12.11,4.95C408.17,326.45,407.19,326.19,406.31,325.8z"/>
			<path class="st8" d="M420.3,334.39c-1.91-0.32-2.36-1.93-2.65-3.28c-0.31-1.49,0.93-2.58,2.22-2.87c1.74-0.4,2.3,1,2.32,2.43
				C422.22,332.2,421.77,333.59,420.3,334.39z"/>
			<path class="st8" d="M390.31,382.75c1.06-2,1.12-4.83,4.27-4.71c0.4,0.02,1.18,0.96,1.1,1.32
				C395.04,382.2,392.73,382.53,390.31,382.75z"/>
			<path class="st8" d="M390.43,382.61c-0.39,1.7-0.97,3.14-2.22,2.48c-1.23-0.65-0.08-1.61,0.73-2.11
				C389.33,382.74,389.86,382.74,390.43,382.61z"/>
			<path class="st7" d="M301.53,357.72c-1.42,2.59,1.63,4.63,0.86,7.14c-4.68-5.64-7.75-12.17-10.24-18.96
				c-0.99-2.68-2.24-3.5-5.06-3.26c-12.84,1.07-25.21-1.89-37.58-4.72c0,0,0.17-0.23,0.17-0.23c2.01-1.79,4.34-1.14,6.6-0.85
				c6.05,0.78,12.15,1.72,18.03,3.05c11.67,2.64,19.9-3.71,28.71-9.08c0.82-0.5,0.87-1.33,0.93-2.16c0.58-2.76,2.75-4.5,4.3-6.62
				c6.5-8.84,8.7-18.48,5.77-29.17c-1.33-4.84-1.23-9.49,1.84-13.8c11.74-16.52,26.8-29.34,44.07-39.7c1.28-0.77,2.7-1.29,4.19-1.54
				c3.3-0.07,5.92-2.22,9.01-2.94c5.54-0.26,9.96-3.69,14.98-5.39c0.52-0.36,1.01-0.74,1.39-1.24c0.58-1.19,0.86-2.28-0.81-2.83
				c-9.49-0.05-18.02,3.57-26.52,7.07c-3.81,1.57-7.7,2.92-11.55,4.34c-2.3,0.85-5.4,0.59-6.18-1.42c-1.1-2.84,2.35-3.26,4.18-4.4
				c0.25-0.03,0.5-0.06,0.74-0.08c9.43-2.23,18.12-6.55,27.23-9.68c2.48-0.85,2.4-6.39,0.47-9.84c-0.7-1.25-3.94-3.15-1.32-3.86
				c2.64-0.71,5.21-7.26,8.76-1.18c0.64,1.09,1.57,1.65,2.83,1.69c0.06,3.64,3.49,4.7,5.44,6.79c5.38,5.79,5.11,13.03-1.06,18.22
				c-0.47,0.39-1.25,1.25-1.19,1.32c3.25,3.98-0.91,5.88-2.26,8.61c-0.86,1.75-1.61,3.78-1.61,5.69c-0.02,6.59-4.33,10.53-8.19,15
				c-1.87,2.16-3.95,4.53-3.58,8.25c0.26,2.62-0.27,5.89-3.94,7.05c-1.1,0.34-2.56,1.68-2.32,2.99c0.53,2.9-1.07,4.55-2.72,6.44
				c-4.97,5.65-8.79,12.28-15.22,16.72c-1.55,1.07-2.8,4.36-3.02,5.63c-0.82,4.77-4.4,5.41-7.45,6.13
				c-8.77,2.07-10.61,11.1-16.68,15.85c-3.9,3.05-7.67,5.95-12.77,6.15c-1.51,0.06-1.77,0.81-2.45,1.83
				c-1.54,2.32-3.1,4.86-5.27,6.47c-2.94,2.18-6.36,2.96-8.5-1.47l-0.04-0.34l-0.27,0.19l0.31,0.14
				C295.23,350.7,295.69,355.78,301.53,357.72z"/>
			<path class="st1" d="M415.98,276c3.87,14.24,4.69,28.77,4.31,43.44c-0.1,3.82-2.03,6.29-5.4,7.55c-2.95,1.11-5.05-0.6-6.86-2.76
				c-1.45-1.74-0.99-3.8-0.95-5.73c0.2-10.48,0.11-20.95-2.02-31.26c-1.71-8.31-4.77-16.06-10.73-22.37
				c-0.63-0.65-1.25-1.29-1.88-1.94c0.1-1.17-0.83-1.73-1.47-2.46c-2.73-3.11-2.87-6.29,0.05-9.26c2.48-2.52,7.18-2.16,9.87,0.63
				c3.91,4.06,7.04,8.74,10.28,13.32C412.79,268.77,414.38,272.39,415.98,276z"/>
			<path class="st8" d="M358.66,335.55c0.71-2.39,2.12-4.1,6.05-4.24C362.04,333.18,360.35,334.36,358.66,335.55z"/>
			<path class="st1" d="M358.31,200.4c5.69,3.33,11.69,6.21,16.15,11.29c4.43,5.04,3.64,7.9-2.75,10.04
				c-7.65,2.56-15.33,5.06-22.33,9.2c0,0,0.01,0,0.01,0c-5.62,3.48-11.16,7.1-16.85,10.46c-1.27,0.75-2.45,1.75-4.09,1.56
				c-10.23,6.15-20.71,1.89-31.05,0.59c-20.81-2.62-41.37-1.84-61.72,3.44c-2.99,0.91-6.11,1.21-9.15,1.86
				c-2.46,0.53-5.01,1.58-6.88-0.74c-1.96-2.43-1.52-5.27-0.23-7.96c0.36-0.75,0.84-1.43,1.32-2.11c0,0,0.01-0.06,0.01-0.06
				c11.04-13.24,23.84-24.48,38.37-33.75c0.08-2.09,1.95-2.3,3.26-3.1c2.19-0.7,4.21-1.72,6.11-3.02c0.85-0.56,1.76-0.94,2.79-1
				c5.94-1.66,11.77-3.69,17.63-5.6c4.52-1.48,9.4-0.43,14.06-1.3l0.31,0.13l0.25-0.23c5.32-1.3,10.63-1.42,15.94,0.05l-0.02-0.02
				c12.9,0.47,25.1,3.79,36.87,8.92C357.05,199.41,357.91,199.55,358.31,200.4z"/>
			<path class="st10" d="M270.59,198.14c-0.56,0.35-1.12,0.71-1.68,1.06c-2.26,0.65-4.57,1.18-6.3,2.96
				c-1.17,0.69-2.34,1.38-3.51,2.07c-0.91-0.15-1.82-0.3-3.99-0.65c6.34-2.65,9.72-8.53,16.48-7.49c0,0,0,0,0,0
				C272.23,197.24,271.09,197.54,270.59,198.14z"/>
			<path class="st16" d="M236.49,198.96c0.78,0.38,2.12-0.47,2.33,0.95c0.04,0.29-0.88,1-1.39,1.03c-1.8,0.09-0.88-1.2-0.88-2.01
				C236.55,198.93,236.49,198.96,236.49,198.96z"/>
			<path class="st1" d="M364.04,238.87c-17.25,8.8-31.32,21.38-43.66,36.18c-5.23,6.28-6.69,12.38-4.39,20.56
				c2.73,9.72-0.47,18.99-6.58,27.04c-1.6,2.1-3.48,3.98-5.24,5.96c-3.64,5.38-9.3,7.4-15.21,8.25c-10.5,1.5-20.79-0.71-31.03-2.85
				c-0.82-0.17-1.52-0.65-2-1.38c-13.3-2.57-26.58-5.22-39.9-7.66c-5.59-1.02-10.57-3.68-15.93-5.29c-2.08-0.59-3.19-2.24-4.3-3.89
				l0.01-0.02c-2.64-2.56-1.33-5.74-0.94-8.5c1.36-9.56,2.72-19.16,6.04-28.31l-0.05,0.07c0.83-1.9,1.06-4,2-5.86
				c4.13-7.74,11.69-11.17,18.9-15.05c3.39-2.47,7.45-3.06,11.37-4.05c0.25,0.15,0.43,0.09,0.54-0.17
				c16.34-4.84,32.98-7.2,50.04-6.09c10.06,1.13,20.1,2.42,30.15,3.68c7.23,0.91,13.65-1.74,19.75-5.56
				c15.42-9.66,32.05-16.53,49.71-20.86c2.11-0.52,5.32-1.96,6.15,0.72c0.94,3.01-2.52,3.71-4.79,4.59
				C377.76,233.09,370.94,236.08,364.04,238.87z"/>
			<path class="st7" d="M364.04,238.87c6.54-4.32,13.83-7.02,21.04-9.91c1.46-0.59,4.51-0.21,3.78-2.82
				c-0.65-2.32-3.07-1.08-4.76-0.69c-16.81,3.86-32.58,10.41-46.86,19.97c-9.74,6.52-19.62,8.91-31.09,6.52
				c-7.1-1.48-14.43-1.88-21.66-2.76c-6.32-1.53-12.8-1.08-19.06-0.4c-4.74,0.51-9.52,0.31-14.22,1.07
				c-0.62-0.11-1.15-0.4-1.58-0.86c4.6-2.92,9.9-1.59,16.07-2.29c-8.16-1.98-15.1,0.79-23.3,0.14c11.72-2.78,22.46-3.52,33.09-3.62
				c11.18-0.1,22.32,1.69,33.44,3.25c6.6,0.93,13.96,2.85,19.51-3.49c6.51-4.82,13.48-8.84,20.94-12.02
				c-0.66,2.23-3.23,2.14-4.61,3.85c6.15,2.55,11.05-1.16,16.09-3.14c9.54-3.76,18.94-7.82,29.48-7.62c0.74,1.66,0.75,3.33,0,4.99
				c-0.33,0.33-0.67,0.67-1,1c-5.59,1.28-10.61,4.09-15.97,5.99C370.22,236.79,367.64,239.47,364.04,238.87z"/>
			<path class="st14" d="M250.64,248.97c9.66,0.42,19.24-1.73,28.91-0.99c1.7,0.13,3.68-0.75,4.96,1.19
				c-17.17-0.8-34.06,1.27-50.83,4.75c2.15-3.43,6.09-1.32,8.9-2.85c0.9-0.49,2.29,0.01,3.07-1.09
				C247.14,248.78,249.16,250.2,250.64,248.97z"/>
			<path class="st17" d="M220.73,238.04c-0.44,1.4-1.02,2.77-1.3,4.21c-1.02,5.29,1.27,7.43,6.5,6.31c3.22-0.69,6.38-1.76,9.74-1.57
				c-2.66,2.5-6.25,1.68-9.37,2.56c-2.88,0.82-6.44,1.51-7.93-1.86C216.87,244.3,217.02,240.54,220.73,238.04z"/>
			<path class="st11" d="M202.72,270.92c-0.33-0.33-0.65-0.67-0.98-1c1.46-2.82,1.74-3.09,8.05-7.67
				C208.03,266.25,204.39,267.81,202.72,270.92z"/>
			<path class="st14" d="M233.14,254.08c-3.79,1.35-7.58,2.7-11.37,4.05C224.82,254.72,228.88,254.11,233.14,254.08z"/>
			<path class="st18" d="M250.64,248.97c-1.4,1.64-3.31,0.76-4.99,1c-0.63-0.11-1.6-0.02-1.81-0.38c-0.47-0.82,0.48-0.59,0.81-0.6
				c1.66-0.06,3.32-0.03,4.98-0.03C249.97,248.97,250.31,248.97,250.64,248.97z"/>
			<path class="st14" d="M202.86,273.18c-0.41,2.04-0.33,4.25-2,5.86c-0.02-2.54,0.55-4.92,1.82-7.13
				C202.74,272.33,202.8,272.75,202.86,273.18z"/>
			<path class="st19" d="M195.76,356.73c0.06-0.63,0.12-1.26,0.19-1.89c0.99,6.51-0.13,13.76,7.04,17.8
				c12.17,11.53,26.09,20.26,41.72,26.32c2.62,1.01,6.89,1.58,5.52,5.52c-1.45,4.15-5.12,2.17-8.03,1.01
				c-17.57-7-33.44-16.59-46.53-30.43c-1.05-2.54-3.57,0.22-4.88-1.35c1.22-1.03,4.2-8.9,4.34-11.14
				C195.23,360.6,195.53,358.66,195.76,356.73z"/>
			<path class="st12" d="M190.77,373.69c1.76-0.01,4.11-2.18,4.88,1.35c-4.02-1.44-4.38,1.19-3.75,3.83
				c0.63,2.66,2.05,5.14,3.12,7.7C190.36,383.34,190.79,378.44,190.77,373.69z"/>
			<path class="st9" d="M281.57,180.12c2.72-1.9,6.18-0.48,8.98-2c9.3-0.23,18.57-1.65,27.9-0.92c4.21,3.07,9.3,2.02,13.96,3
				c0.68,0.64,1.36,1.28,2.05,1.91c-0.33,3.8,3.1,1.77,4.59,2.82c1.29,0.91,4.51-0.55,3.41,3.03c-0.84,2.74-2.32,3.62-5.2,2.12
				c-3.91-2.04-8.27-2.05-12.6-2.04c-2.06,0-4.34,0.86-6.16-0.94c-0.63-6.57-0.63-6.45-7.53-6.65c-3.49-0.1-7.2,1.03-10.43-1.33
				c-5.05-0.64-9.95,1.18-14.97,1C284.23,180.85,282.9,180.84,281.57,180.12z"/>
			<path class="st13" d="M300.53,179.13c4.12,0,8.24-0.01,12.37,0c8.17,0.01,8.54,0.55,5.6,7.98c-5.66,0.3-11.4-0.8-16.96,1
				C300.4,185.2,299.5,182.27,300.53,179.13z"/>
			<path class="st20" d="M358.31,200.4c-12.42-5.46-25.4-8.79-38.87-10.24c13.18-1.05,25.13,3.53,37.08,8.08
				C357.5,198.61,358.14,199.33,358.31,200.4z"/>
			<path class="st20" d="M270.59,198.14c0.34-0.68,0.67-1.37,1.01-2.05c5.42-1.36,10.82-2.75,15.97-4.99c1.56-0.84,3.27-0.96,4.99-1
				c3.47,0.04,6.94,0.08,10.41,0.12C291.84,191.52,281.1,194.36,270.59,198.14z"/>
			<path class="st20" d="M319.46,190.18c-5.31-0.02-10.62-0.03-15.94-0.05c1.03-1.5,2.63-0.88,4.01-1.08
				c2.65-0.69,5.31-0.7,7.96,0.01C316.86,189.26,318.48,188.59,319.46,190.18z"/>
			<path class="st9" d="M292.55,190.1c-1.4,1.66-3.31,0.76-4.99,1c1.06-2.18,3.19-1.68,4.99-2
				C292.55,189.43,292.55,189.77,292.55,190.1z"/>
			<path class="st9" d="M315.49,189.06c-2.65,0-5.31-0.01-7.96-0.01C310.19,187.59,312.84,187.58,315.49,189.06z"/>
			<path class="st14" d="M200.91,278.97c-2.02,10.13-4.87,20.11-5.58,30.49c-0.15,2.17-0.14,4.24,0.47,6.31
				c-3.95-3.03-1.23-7.31-2.05-10.93c3.1-6.74,2.44-14.35,4.89-21.26C199.25,281.92,199.14,280.02,200.91,278.97z"/>
			<path class="st13" d="M281.57,180.12c1.33,0,2.66,0,3.99,0c-2.62,0.35-5.19,3.69-7.86,0.1
				C278.99,180.19,280.28,180.16,281.57,180.12z"/>
			<path class="st3" d="M302.35,364.79c3.73,1.9,6.67,4.43,7.13,8.93C306.49,371.23,304.1,368.27,302.35,364.79z"/>
			<path class="st21" d="M415.46,339.7c-0.18,5.38-1.63,10.42-4.12,15.16c-1.81,3.44-4.62,4.9-8.22,3
				c-3.58-1.89-4.74-4.91-2.84-8.77c1.63-3.3,2.43-6.83,2.91-10.46c0.67-5.06,3.15-7.54,7.06-7.09
				C413.9,331.97,415.63,334.66,415.46,339.7z"/>
			<path class="st3" d="M394.28,295.87c0.76-0.96,0.74-2.65,2.42-2.61c0.64,0.01,1.22,0.71,0.95,1.35
				C397.03,296.11,395.57,295.79,394.28,295.87z"/>
			<path class="st16" d="M290.82,427.15c-5.82-1.18-10.72-3.15-15.14-6.16c-1.65-1.13-2.45-2.63-1.21-4.68
				c1.36-2.24,3.19-2.23,5.11-1.1c3.88,2.3,7.96,4.06,12.33,5.17c2.07,0.53,3.18,1.75,2.53,4.01
				C293.83,426.5,292.19,427.04,290.82,427.15z"/>
			<path class="st3" d="M255.94,332.63c7.94,0.63,15.6,3.04,23.6,3.44c9.18,0.46,17.35-1.94,24.64-7.46
				c2.18,1.02,2.36,1.86,0.15,3.33c-4.58,3.04-9.78,4.98-14.13,8.5c-1.54,1.25-4.3,1.37-6.69,1.37c-8.97,0-17.7-1.79-26.43-3.48
				c-2.49-0.48-4.93-0.38-7.39-0.64c-4.78-2.95-10.38-2.8-15.61-3.76c-6.28-1.15-13.16-1.36-18.54-4.23
				c-4.38-2.34-9.21-4.08-13.3-7.22c6.28,2.7,13.06,3.26,19.46,5.3c-0.55,0.63-1.28,0.88-2.06,1.03c0.81-0.1,1.52-0.4,2.06-1.03
				c9.29,1.6,18.56,3.27,27.86,4.76C251.64,332.88,253.81,332.62,255.94,332.63z"/>
			<path class="st9" d="M195.8,315.79c1.43,1.3,2.87,2.59,4.3,3.89C197.46,319.71,196.09,318.35,195.8,315.79z"/>
			<path class="st3" d="M373.38,236c4.77-3.47,10.07-5.52,15.97-5.99C384.15,232.34,379.39,235.83,373.38,236z"/>
			<path class="st3" d="M294.55,345.84c-1.43-0.99-2.2-1.76-1.61-3.47C294.72,342.99,294.49,344.45,294.55,345.84z"/>
			<path class="st3" d="M390.34,229.01c0-1.66,0-3.33,0-4.99C391.82,225.69,391.82,227.35,390.34,229.01z"/>
			<path class="st22" d="M262.62,202.16c1.03-3.27,3.82-2.77,6.29-2.96C266.81,200.19,264.71,201.17,262.62,202.16z"/>
			<path class="st12" d="M264.59,304.21c-0.06-11.11,9.04-20.77,19.8-21.03c10.88-0.26,20.88,9.51,20.98,20.49
				c0.1,11.01-9.55,20.64-20.67,20.65C274.15,324.34,264.65,314.84,264.59,304.21z"/>
			<path class="st12" d="M222.76,327.14c-2.75,3.41-4.45,2.83-6.59,1.51C218.14,327.09,220.03,328.3,222.76,327.14z"/>
		</g>
		<path class="st4" d="M219.73,212.14c0,0-9.91,11.58-10.45,13.04c-0.54,1.47,8.2-0.94,8.2-0.94l9.44-9.33"/>
		<path class="st1" d="M206.28,268.39c0,0-4.28,3.64-5.9,13.15"/>
		<path class="st1" d="M222.18,236.27c0,0-9.97,10.99,1.35,12.58"/>
		<path class="st1" d="M236.38,246.8c0,0-13.06,3.92-16.07,1.02"/>
		<path class="st1" d="M220.73,238.04c0,0-8.51,11.63,5.17,10.81"/>
		<path class="st4" d="M237.3,246.57"/>
		<path class="st4" d="M220.6,238.22c0,0-8.12,10.89,4.42,10.67c12.54-0.22,0.88,2.78,0.88,2.78l-7.89,0.68l-7.07-10.94l5.38-4.71"
			/>
		<path class="st7" d="M239.88,245.96c0,0,24.25-6.19,50.79-3.14c26.54,3.05,0,5.81,0,5.81h-19.11l-13.06,0.92l-16.47,2.26
			l-14.13,2.79l-6.14-3.44"/>
		<path class="st3" d="M192.56,257.02l-15.43,49.61c0,0,15.75-57.06,21.41-62.12c5.66-5.06-3.46,44.47-3.46,44.47l-9.91,20"/>
		<path class="st1" d="M199.21,243.02c0,0-19.01,50.65-20.84,59.2c-1.83,8.54-7.13-14.56-7.13-14.56l2.03-43.53"/>
		<path class="st6" d="M172,367.32c0,0,2.23-21.55,15.31-30.44c13.08-8.89-1.87,28.46-1.87,28.46l-11.46,6.12"/>
		<polygon class="st6" points="410.45,256.04 413.39,257.75 413.92,255.34 412.18,254.16 		"/>
		<path class="st1" d="M394.33,264.87c0,0-11.36-9.32-1.38-14.9"/>
		<polyline class="st1" points="232.4,254.35 234.5,253.74 234.89,255.28 233.68,256.31 232.4,255.49 		"/>
		<path class="st1" d="M295.63,176.44c0,0-56.86,6.12-86.35,48.74s-35.13-52.14-35.13-52.14l118.4-10.24"/>
		<path class="st4" d="M281.86,179.08c0,0,45.61-17.17,101.48,24.04s-36.07-9.96-36.07-9.96"/>
		<path class="st1" d="M195.27,310.82c0,0-1.83,10.78,19.89,13.97"/>
	</g>
	<path class="st1" d="M196.94,376.38c0,0-7.7-8.53-4.41,4.52c3.29,13.06,16.42,12.83,16.42,12.83"/>
	<path class="st1" d="M195.02,386.57c0,0,9.25,12.78,17.07,17.12"/>
	<path class="st1" d="M368.61,436.09c0,0,5.27-3.23,4.94,0.43c-0.33,3.67-6.95,2.25-6.95,2.25"/>
	<path class="st1" d="M367.16,436.45c0,0,2.54-0.88,3.23-1.24c0.69-0.36-0.78,2.56-0.78,2.56l-2.74,0.6"/>
	<path class="st1" d="M205.07,374.56c0,0-7.97-6.11-7.35-14.58s6.53,3.71,6.53,3.71"/>
	<path class="st1" d="M195.46,307.93c0,0-2.9,7.27,3.75,10.95c6.66,3.67,14.91,1.77,14.91,1.77"/>
	<path class="st1" d="M196.21,301.82l-1.38,8.1c0,0-2.97,10.72,17.23,14.42s13.35-12.92,13.35-12.92"/>
	<path class="st1" d="M177.52,319.42c0,0,0.93,4.25,8.65,9.59S172,335.81,172,335.81v-16.38"/>
	<path class="st3" d="M192.46,260.82c0,0,7.06-45.05,58.51-70.64s-15.29,27.42-15.29,27.42l-36.46,46"/>
	<polyline class="st1" points="382.74,229.89 388.01,228.22 384.85,227.09 381.09,228.79 	"/>
	<path class="st3" d="M359.56,188.53c0,0,43.84,23.21,50.12,42.16s-25.65-13.16-25.65-13.16l-10.65-8.74l-16.35-9.71l-18.16-6.07
		L324.29,190l-18.62-0.36l-13.75,1.01l-20.14,6.69l-8.98,4.3l-10.38,7.06l-4.19,0.17c0,0-0.71-5.82-0.35-6.09
		c0.35-0.26,15.88-15.65,15.88-15.65l3.97-2.66l9.97-3.59l16.86-3.58l11.29-0.9l14.32,0.67l12.94,2.05l16.68,5.36L359.56,188.53z"/>
	<path class="st1" d="M200.65,280.24c0,0-1.06-20.29,44.48-28.85c45.54-8.56-4.13,31.8-4.13,31.8l-34.72,9.88"/>
</g>
</svg>
