<?xml version="1.0" encoding="utf-8"?>
<!-- Generator: Adobe Illustrator 26.0.2, SVG Export Plug-In . SVG Version: 6.00 Build 0)  -->
<svg version="1.1" id="Camada_1" xmlns="http://www.w3.org/2000/svg" xmlns:xlink="http://www.w3.org/1999/xlink" x="0px" y="0px"
	 viewBox="0 0 600 600" style="enable-background:new 0 0 600 600;" xml:space="preserve">
<style type="text/css">
	.st0{fill:#FFFFFF;}
	.st1{fill:#0078F2;}
	.st2{fill:#FEFEFE;}
</style>
<circle class="st0" cx="297.5" cy="300.5" r="273.38"/>
<g>
	<path class="st1" d="M297.04,549.93C159.6,549.86,48.02,437.8,48.1,299.91C48.18,162.52,160.31,50.97,298.22,51.07
		c137.54,0.1,248.86,112.35,248.69,250.77C546.74,438.51,434.46,549.99,297.04,549.93z"/>
	<path class="st2" d="M324.11,350.8c21.12,0,42.24,0,63.36,0c10.66,0,12.53,2.07,10.44,12.37c-3.15,15.44-6.46,30.85-9.85,46.24
		c-1.41,6.43-5.48,9.54-12.05,9.54c-62.8,0.02-125.59,0.01-188.39,0c-5.47,0-9.34-3.41-8.27-8.1c3.11-13.58,4.84-27.46,9.32-40.74
		c1.81-5.36,5.16-9.14,9.78-12.13c30.24-19.63,61.28-38.03,91.06-58.38c10.86-7.42,21.51-15.14,30.49-24.89
		c5.09-5.52,8.69-11.62,8.38-19.58c-0.16-4.14-2-6.07-5.83-6.69c-6.26-1.01-11.86,0.26-16.67,4.59c-3.4,3.06-5.83,6.85-7.95,10.8
		c-3.27,6.09-8.43,8.78-15.07,8.8c-20.65,0.07-41.31,0.08-61.96-0.01c-5.79-0.02-7.87-3.09-6.39-9
		c7.16-28.44,24.68-48.92,49.58-63.37c27.18-15.77,56.74-19.73,87.59-16.49c13.86,1.45,27.18,4.69,39.29,11.81
		c21,12.35,29.58,32.28,25.66,56.3c-4.11,25.22-18.49,43.65-37.17,59.51c-16.14,13.7-34.06,24.9-51.95,36.13
		c-1.24,0.78-2.46,1.59-3.69,2.39C323.92,350.21,324.01,350.51,324.11,350.8z"/>
</g>
</svg>
