<?xml version="1.0" encoding="utf-8"?>
<!-- Generator: Adobe Illustrator 26.0.2, SVG Export Plug-In . SVG Version: 6.00 Build 0)  -->
<svg version="1.1" id="Camada_1" xmlns="http://www.w3.org/2000/svg" xmlns:xlink="http://www.w3.org/1999/xlink" x="0px" y="0px"
	 viewBox="0 0 600 600" style="enable-background:new 0 0 600 600;" xml:space="preserve">
<style type="text/css">
	.st0{fill:#FFFFFF;}
	.st1{fill:#0078F2;}
	.st2{fill:#FEFEFE;}
</style>
<circle class="st0" cx="297.5" cy="300.5" r="273.38"/>
<g>
	<path class="st1" d="M297.46,549.92C159.84,549.91,48.06,438.04,48.08,300.33C48.1,162.77,160.05,51.04,297.79,51.08
		c137.74,0.04,249.26,112.1,249.13,250.33C546.8,438.25,434.69,549.93,297.46,549.92z"/>
	<path class="st2" d="M284.89,278.51c-13.29,8.74-25.64,16.84-37.97,24.97c-8.05,5.3-11.22,4.55-15.87-3.75
		c-6.25-11.16-12.57-22.28-18.83-33.43c-4.95-8.82-3.89-13.19,4.48-18.76c25.76-17.15,51.44-34.41,77.29-51.41
		c22.41-14.74,12.92-11.67,39.59-11.94c14.33-0.15,28.66-0.08,42.99,0c7.57,0.04,10.48,3.91,8.9,11.31
		c-14.56,68.18-29.1,136.37-43.66,204.55c-0.55,2.6-1.12,5.2-1.85,7.75c-1.43,5-5.41,8.15-10.6,8.16c-21.49,0.05-42.99,0.07-64.48,0
		c-5.86-0.02-8.77-4.07-7.46-10.21c4.31-20.13,8.69-40.24,13.03-60.36C275.19,323.48,279.91,301.6,284.89,278.51z"/>
</g>
</svg>
