<svg id="Camada_1" data-name="Camada 1"
    xmlns="http://www.w3.org/2000/svg" viewBox="0 0 1000 1000">
    <defs>
        <style>.cls-1{fill:#ef7c0f;}.cls-2{fill:#ab1917;}</style>
    </defs>
    <path class="cls-1" d="M734.6,623.44l-39.32-63.19C708,506.19,711.6,454.89,706,407c-7-59.92-28.19-114.72-63.11-162.87C594.11,176.77,533.19,142,511,130.84c-5.16-2.5-9.4-4.39-10.94-5-1,.37-2.14.86-3.32,1.38l-.06.07c-1.65.74-5.15,2.35-10,4.87-4,2.08-8,4.29-11.48,6.25C447.11,154.42,398,187.93,357.27,244c-34.93,48.13-56.2,102.92-63.19,162.84-5.59,47.91-2,99.22,10.68,153.28L265.4,623.32l123.88,0h7.32c-.76-3.89-1.64-7.63-2.36-11.57-5.47-30-9.64-61.53-12.85-94.24a1606.81,1606.81,0,0,1,237.22-.84c-3.23,33-7.44,64.92-13,95.15-.72,3.93-1.6,7.67-2.36,11.55h4.45ZM377.16,440.79c2.81-31.44,8.75-61.08,18.23-88.37,20.11-57.92,55.33-106,104.68-143,49.34,37,84.53,85.11,104.61,143.05,9.44,27.2,15.35,56.73,18.16,88A1372.36,1372.36,0,0,0,377.16,440.79Z"/>
    <path class="cls-2" d="M574.21,704.42c-2.14-15.17-.12-30.59-8.65-46.95-34.94,27.4-53.41,60.1-63.72,99.43-31.2-32.69-45.87-65.63-31.64-106-13.93,4-23.58,9.49-31.68,16.51-7.8,6.76-14.57,14.34-22.59,22.36-12.85-24.69-13.07-48.67-7.72-73.48a91.08,91.08,0,0,0-13.49,24c-7.35,20.42-5.85,41.2-1.82,61.92q7.78,40,16,79.89c.12.62,1.49,1.07,2.89,2a35.75,35.75,0,0,0,15.53-20.87c2.43-8.6,3.65-17.42,5.49-26.13,1.15-5.43,1.14-11.34,9-16,0,3.47.29,5.59,0,7.64-5.21,32.1,3.24,61.58,24.41,88.72,13,16.65,21.56,34.6,22,56.79,4.11-1.81,6.05-2.42,7.64-3.42,27.4-17,43-38.84,41.15-68.16-1.09-17.23-1.31-34.51-1.34-51.77,0-5.06,2-10.11,3-15.17,6.62,21.47,9.09,43.44,26.49,61.47,9.81-20.12,19.13-38.87,28.09-57.75,10.08-21.21,16.37-43.15,15.55-66.07-.64-18-3.58-35.72-14.08-52.19C595,650.21,595.08,679,574.21,704.42Z"/>
</svg>