<svg id="Camada_1" data-name="Camada 1"
    xmlns="http://www.w3.org/2000/svg" viewBox="0 250 1000 500">
    <defs>
        <style>.cls-1{fill:#ef7d12;}.cls-2{fill:#ab1917;}</style>
    </defs>
    <path class="cls-1" d="M151.72,444.77a32.34,32.34,0,0,0-4.65-3.46,56.77,56.77,0,0,0-8.21-4.29,71.53,71.53,0,0,0-10.48-3.55A45.93,45.93,0,0,0,116.89,432q-10.4,0-15.5,3.83a12.67,12.67,0,0,0-5.1,10.76,11.08,11.08,0,0,0,1.91,6.65,16.43,16.43,0,0,0,5.56,4.65,46.28,46.28,0,0,0,9.21,3.65q5.57,1.63,12.86,3.46,9.46,2.57,17.23,5.47a46.71,46.71,0,0,1,13.12,7.3,30.08,30.08,0,0,1,8.3,10.48,34.83,34.83,0,0,1,2.92,15q0,10.4-3.92,17.78A32.92,32.92,0,0,1,152.9,533a46,46,0,0,1-15.31,6.66,77.38,77.38,0,0,1-18.15,2.1,97.44,97.44,0,0,1-28.81-4.38A88.87,88.87,0,0,1,65.11,525l11.12-21.7a34.38,34.38,0,0,0,5.93,4.29,89.12,89.12,0,0,0,10.12,5.29,78.09,78.09,0,0,0,12.94,4.46,58.28,58.28,0,0,0,14.59,1.83q20.79,0,20.78-13.31a10.89,10.89,0,0,0-2.37-7.11,20,20,0,0,0-6.74-5.11,64.22,64.22,0,0,0-10.58-4q-6.2-1.83-13.86-4a118.76,118.76,0,0,1-16.13-5.56A42.67,42.67,0,0,1,79.51,473a26.54,26.54,0,0,1-6.83-9.49,32.62,32.62,0,0,1-2.28-12.85A40.2,40.2,0,0,1,74,433.11a35.46,35.46,0,0,1,10.12-12.77,46.12,46.12,0,0,1,15-7.75A62.32,62.32,0,0,1,117.62,410a71.6,71.6,0,0,1,25.16,4.28,94,94,0,0,1,20.06,10.12Z"/>
    <path class="cls-1" d="M228.35,542.14a37.65,37.65,0,0,1-19.69-5,35.63,35.63,0,0,1-13.13-13.59v55.61H171.09V444.77h21.34v16.41A38.92,38.92,0,0,1,206.1,448a38.05,38.05,0,0,1,19.33-4.84,41,41,0,0,1,17.87,3.92,44.31,44.31,0,0,1,14.13,10.58,49.25,49.25,0,0,1,9.3,15.68,54,54,0,0,1,3.37,19.05,60.08,60.08,0,0,1-3.1,19.51,50,50,0,0,1-8.66,15.87,40.41,40.41,0,0,1-13.22,10.57A37,37,0,0,1,228.35,542.14Zm-8.21-20.79A22,22,0,0,0,230.26,519a24.22,24.22,0,0,0,7.93-6.38,29.91,29.91,0,0,0,5.11-9.3,33.44,33.44,0,0,0,1.82-10.94,31,31,0,0,0-2-11.21,28,28,0,0,0-5.56-9,26.07,26.07,0,0,0-8.39-6,25.11,25.11,0,0,0-10.49-2.19,23.22,23.22,0,0,0-7.11,1.18,25.21,25.21,0,0,0-6.74,3.38,29.57,29.57,0,0,0-5.56,5.1,21.18,21.18,0,0,0-3.74,6.38v22.43a32.52,32.52,0,0,0,10,13.59A22.92,22.92,0,0,0,220.14,521.35Z"/>
    <path class="cls-1" d="M323.37,542.14a53.09,53.09,0,0,1-20.79-3.92,46.91,46.91,0,0,1-26-26.35A50.29,50.29,0,0,1,273,493.09a53.18,53.18,0,0,1,3.47-19.23,46.89,46.89,0,0,1,10-15.87,48.16,48.16,0,0,1,16-10.85,53.18,53.18,0,0,1,21.06-4,51.88,51.88,0,0,1,20.88,4,48.36,48.36,0,0,1,15.68,10.76A45.88,45.88,0,0,1,370,473.58a52.23,52.23,0,0,1,3.37,18.6q0,2.37-.09,4.56a18.87,18.87,0,0,1-.45,3.65H298.93a28.34,28.34,0,0,0,2.74,10,24.82,24.82,0,0,0,5.65,7.48,24.46,24.46,0,0,0,7.84,4.74,25.83,25.83,0,0,0,9.12,1.64A28.13,28.13,0,0,0,338,520.72a18.81,18.81,0,0,0,8.85-9.39l21,5.83a42.59,42.59,0,0,1-16.86,18Q339.41,542.14,323.37,542.14Zm24.79-57.62q-.92-10.75-7.93-17.23a24.9,24.9,0,0,0-33.82.09,25.08,25.08,0,0,0-5.38,7.48,26.26,26.26,0,0,0-2.46,9.66Z"/>
    <path class="cls-1" d="M426.93,542.14a53.09,53.09,0,0,1-20.79-3.92,46.91,46.91,0,0,1-26-26.35,50.28,50.28,0,0,1-3.55-18.78,53.17,53.17,0,0,1,3.46-19.23,46.91,46.91,0,0,1,10-15.87,48,48,0,0,1,15.95-10.85,53.18,53.18,0,0,1,21.06-4,51.88,51.88,0,0,1,20.88,4,48.25,48.25,0,0,1,15.68,10.76,46.06,46.06,0,0,1,9.85,15.68,52.45,52.45,0,0,1,3.37,18.6q0,2.37-.09,4.56a19.6,19.6,0,0,1-.46,3.65H402.5a28.13,28.13,0,0,0,2.73,10,24.82,24.82,0,0,0,5.65,7.48,24.56,24.56,0,0,0,7.84,4.74,25.87,25.87,0,0,0,9.12,1.64,28.2,28.2,0,0,0,13.77-3.55,18.83,18.83,0,0,0,8.84-9.39l21,5.83a42.68,42.68,0,0,1-16.87,18Q443,542.14,426.93,542.14Zm24.8-57.62q-.92-10.75-7.93-17.23a24.91,24.91,0,0,0-33.83.09,25.08,25.08,0,0,0-5.38,7.48,26.46,26.46,0,0,0-2.46,9.66Z"/>
    <path class="cls-1" d="M790.73,542.14a37.65,37.65,0,0,1-19.69-5,35.7,35.7,0,0,1-13.13-13.59v55.61H733.48V444.77h21.33v16.41A39,39,0,0,1,768.49,448a38,38,0,0,1,19.33-4.84,40.93,40.93,0,0,1,17.86,3.92,44.46,44.46,0,0,1,14.14,10.58,49.41,49.41,0,0,1,9.29,15.68,54,54,0,0,1,3.38,19.05,60.35,60.35,0,0,1-3.1,19.51,50.18,50.18,0,0,1-8.66,15.87,40.52,40.52,0,0,1-13.22,10.57A37,37,0,0,1,790.73,542.14Zm-8.2-20.79A22,22,0,0,0,792.65,519a24.33,24.33,0,0,0,7.93-6.38,29.69,29.69,0,0,0,5.1-9.3,33.19,33.19,0,0,0,1.83-10.94,30.79,30.79,0,0,0-2-11.21,28,28,0,0,0-5.56-9,26,26,0,0,0-8.39-6,25.07,25.07,0,0,0-10.48-2.19A23.22,23.22,0,0,0,774,465.1a25.42,25.42,0,0,0-6.75,3.38,29.57,29.57,0,0,0-5.56,5.1,21.39,21.39,0,0,0-3.74,6.38v22.43a32.52,32.52,0,0,0,10,13.59A23,23,0,0,0,782.53,521.35Z"/>
    <path class="cls-1" d="M893.14,542.14a37.63,37.63,0,0,1-19.69-5,35.63,35.63,0,0,1-13.13-13.59v55.61H835.88V444.77h21.34v16.41A38.92,38.92,0,0,1,870.89,448a38.05,38.05,0,0,1,19.33-4.84,41,41,0,0,1,17.87,3.92,44.31,44.31,0,0,1,14.13,10.58,49.25,49.25,0,0,1,9.3,15.68,54,54,0,0,1,3.37,19.05,60.08,60.08,0,0,1-3.1,19.51,50,50,0,0,1-8.66,15.87,40.41,40.41,0,0,1-13.22,10.57A37,37,0,0,1,893.14,542.14Zm-8.21-20.79A22,22,0,0,0,895.05,519,24.33,24.33,0,0,0,903,512.6a29.91,29.91,0,0,0,5.11-9.3,33.44,33.44,0,0,0,1.82-10.94,31,31,0,0,0-2-11.21,27.89,27.89,0,0,0-5.57-9,25.92,25.92,0,0,0-8.38-6,25.11,25.11,0,0,0-10.49-2.19,23.22,23.22,0,0,0-7.11,1.18,25.21,25.21,0,0,0-6.74,3.38,29.93,29.93,0,0,0-5.57,5.1,21.36,21.36,0,0,0-3.73,6.38v22.43a32.44,32.44,0,0,0,10,13.59A22.92,22.92,0,0,0,884.93,521.35Z"/>
    <path class="cls-1" d="M522.06,442a37.65,37.65,0,0,1,19.69,5,35.68,35.68,0,0,1,13.13,13.58V410.23h24.43v129.1H558V522.92a39.06,39.06,0,0,1-13.68,13.22A38,38,0,0,1,525,541a40.94,40.94,0,0,1-17.87-3.92A44.28,44.28,0,0,1,493,526.48a49.36,49.36,0,0,1-9.3-15.68,54,54,0,0,1-3.38-19.06,60.39,60.39,0,0,1,3.1-19.51,50.13,50.13,0,0,1,8.66-15.86,40.55,40.55,0,0,1,13.22-10.58A37,37,0,0,1,522.06,442Zm8.2,20.78a22,22,0,0,0-10.12,2.37,24.59,24.59,0,0,0-7.93,6.38,29.8,29.8,0,0,0-5.1,9.3,33.23,33.23,0,0,0-1.83,10.94,30.88,30.88,0,0,0,2,11.22,27.88,27.88,0,0,0,5.56,9,26,26,0,0,0,8.39,6,25.1,25.1,0,0,0,10.48,2.19,22.94,22.94,0,0,0,7.11-1.19,25,25,0,0,0,6.75-3.37,29.29,29.29,0,0,0,5.56-5.11,21.15,21.15,0,0,0,3.74-6.38V481.71a32.43,32.43,0,0,0-10-13.58A22.92,22.92,0,0,0,530.26,462.75Z"/>
    <path class="cls-1" d="M728.54,538.49l-12-19.71c3.86-16.85,5-32.84,3.28-47.78a107.77,107.77,0,0,0-19.25-50.78,116.48,116.48,0,0,0-40.23-35.32c-1.57-.78-2.86-1.37-3.33-1.57-.31.12-.65.27-1,.44v0c-.51.23-1.57.73-3.07,1.52-1.21.64-2.43,1.33-3.5,1.94a117.76,117.76,0,0,0-36,32.94A107.8,107.8,0,0,0,594.19,471c-1.71,14.94-.6,30.94,3.26,47.79l-12,19.7h40c-.23-1.22-.5-2.38-.72-3.61-1.67-9.34-2.94-19.18-3.92-29.38a479.91,479.91,0,0,1,72.34-.26c-1,10.29-2.26,20.24-3.95,29.66-.22,1.23-.49,2.39-.72,3.6h40Zm-109-56.95A117.13,117.13,0,0,1,625.09,454,92.73,92.73,0,0,1,657,409.41,92.71,92.71,0,0,1,688.92,454a117.3,117.3,0,0,1,5.53,27.45A409.38,409.38,0,0,0,619.53,481.54Z"/>
    <path class="cls-2" d="M679.62,563.73c-.65-4.73,0-9.53-2.63-14.64-10.66,8.55-16.29,18.74-19.44,31-9.51-10.2-14-20.47-9.65-33.06a24.13,24.13,0,0,0-9.66,5.14c-2.38,2.11-4.44,4.47-6.89,7-3.92-7.69-4-15.17-2.35-22.91a28.62,28.62,0,0,0-4.12,7.47c-2.24,6.37-1.78,12.85-.55,19.31,1.58,8.31,3.22,16.61,4.86,24.91,0,.19.46.33.89.62a11.1,11.1,0,0,0,4.73-6.5c.74-2.68,1.12-5.43,1.68-8.15.35-1.69.35-3.53,2.73-5a18,18,0,0,1,0,2.39c-1.58,10,1,19.2,7.45,27.66,4,5.19,6.57,10.79,6.71,17.71a23.17,23.17,0,0,0,2.33-1.07c8.36-5.32,13.12-12.11,12.55-21.25-.33-5.37-.39-10.76-.4-16.14a23.12,23.12,0,0,1,.92-4.73c2,6.69,2.77,13.54,8.08,19.16,3-6.27,5.83-12.12,8.56-18,3.08-6.62,5-13.46,4.74-20.6-.19-5.61-1.09-11.14-4.29-16.27C686,546.83,686,555.81,679.62,563.73Z"/>
</svg>